<svg width="80" height="80" viewBox="0 0 80 80" fill="none" xmlns="http://www.w3.org/2000/svg">
<path d="M53.3337 20.9324C53.3337 22.9372 52.542 24.8627 51.128 26.287C47.8733 29.5668 44.717 32.9868 41.3407 36.1476C40.567 36.8616 39.3393 36.8356 38.5987 36.0893L28.872 26.287C25.932 23.3241 25.932 18.5408 28.872 15.5779C31.8409 12.5859 36.6777 12.5859 39.6463 15.5779L40 15.9342L40.3533 15.5781C41.777 14.1428 43.7157 13.3333 45.7407 13.3333C47.766 13.3333 49.7047 14.1427 51.128 15.5779C52.542 17.0024 53.3337 18.9278 53.3337 20.9324Z" stroke="#FF2A23" stroke-width="1.5" stroke-linejoin="round"/>
<path d="M60 66.6667L72.7477 53.919C73.1227 53.544 73.3333 53.0353 73.3333 52.505V35C73.3333 32.2386 71.0947 30 68.3333 30C65.572 30 63.3333 32.2386 63.3333 35V50" stroke="#FF2A23" stroke-width="1.5" stroke-linecap="round" stroke-linejoin="round"/>
<path d="M59.9997 53.3334L62.86 50.4731C63.163 50.1701 63.333 49.7594 63.333 49.3314C63.333 48.7198 62.9873 48.1608 62.4403 47.8871L60.964 47.1491C58.3977 45.8658 55.2977 46.3688 53.2687 48.3978L50.2857 51.3808C49.0353 52.6311 48.333 54.3268 48.333 56.0948V66.6668" stroke="#FF2A23" stroke-width="1.5" stroke-linecap="round" stroke-linejoin="round"/>
<path d="M20.0003 66.6667L7.25279 53.919C6.87769 53.544 6.66699 53.0353 6.66699 52.505V35C6.66699 32.2386 8.90556 30 11.667 30C14.4284 30 16.667 32.2386 16.667 35V50" stroke="#FF2A23" stroke-width="1.5" stroke-linecap="round" stroke-linejoin="round"/>
<path d="M20.0003 53.3334L17.1399 50.4731C16.8371 50.1701 16.667 49.7594 16.667 49.3314C16.667 48.7198 17.0125 48.1608 17.5595 47.8871L19.0359 47.1491C21.6025 45.8658 24.7023 46.3688 26.7314 48.3978L29.7144 51.3808C30.9646 52.6311 31.667 54.3268 31.667 56.0948V66.6668" stroke="#FF2A23" stroke-width="1.5" stroke-linecap="round" stroke-linejoin="round"/>
</svg>
