<svg width="52" height="52" viewBox="0 0 52 52" fill="none" xmlns="http://www.w3.org/2000/svg">
<path d="M15.167 13H36.8337" stroke="#FF2A23" stroke-width="1.5" stroke-linecap="round" stroke-linejoin="round"/>
<path d="M15.167 19.5H36.8337" stroke="#FF2A23" stroke-width="1.5" stroke-linecap="round" stroke-linejoin="round"/>
<path d="M19.5 36.8333H32.5" stroke="#FF2A23" stroke-width="1.5" stroke-linecap="round" stroke-linejoin="round"/>
<path d="M6.49967 25.9999H5.63301C4.91504 25.9999 4.33301 26.5819 4.33301 27.2999V46.3666C4.33301 47.0846 4.91504 47.6666 5.63301 47.6666H46.3663C47.0844 47.6666 47.6663 47.0846 47.6663 46.3666V27.2999C47.6663 26.5819 47.0844 25.9999 46.3663 25.9999H45.4997M6.49967 25.9999V5.63325C6.49967 4.91528 7.08171 4.33325 7.79967 4.33325H44.1997C44.9177 4.33325 45.4997 4.91528 45.4997 5.63325V25.9999M6.49967 25.9999H45.4997" stroke="#FF2A23" stroke-width="1.5"/>
</svg>
