<svg width="24" height="24" viewBox="0 0 24 24" xmlns="http://www.w3.org/2000/svg">
<g clip-path="url(#clip0_176_3740)">
<path fill-rule="evenodd" clip-rule="evenodd" d="M12 24C18.6274 24 24 18.6274 24 12C24 5.37258 18.6274 0 12 0C5.37258 0 0 5.37258 0 12C0 18.6274 5.37258 24 12 24ZM10.5078 8.16301C10.7281 7.93794 11.0768 7.94706 11.2866 8.18339C11.4964 8.41971 11.4879 8.79374 11.2676 9.01881L8.92797 11.4091H16.4492C16.7534 11.4091 17 11.6736 17 12C17 12.3263 16.7534 12.5909 16.4492 12.5909H8.92797L11.2676 14.9812C11.4879 15.2063 11.4964 15.5803 11.2866 15.8166C11.0768 16.0529 10.7281 16.0621 10.5078 15.837L7.17095 12.4279C7.06178 12.3164 7 12.1617 7 12C7 11.8383 7.06178 11.6836 7.17095 11.5721L10.5078 8.16301Z"/>
</g>
<defs>
<clipPath id="clip0_176_3740">
<rect width="24" height="24" fill="white"/>
</clipPath>
</defs>
</svg>
