<svg width="24" height="24" viewBox="0 0 24 24" xmlns="http://www.w3.org/2000/svg">
<g clip-path="url(#clip0_161_2373)">
<path fill-rule="evenodd" clip-rule="evenodd" d="M12 24C18.6274 24 24 18.6274 24 12C24 5.37258 18.6274 0 12 0C5.37258 0 0 5.37258 0 12C0 18.6274 5.37258 24 12 24ZM13.4922 8.16301C13.2719 7.93794 12.9232 7.94706 12.7134 8.18339C12.5036 8.41971 12.5121 8.79374 12.7324 9.01881L15.072 11.4091H7.55085C7.24662 11.4091 7 11.6736 7 12C7 12.3263 7.24662 12.5909 7.55085 12.5909H15.072L12.7324 14.9812C12.5121 15.2063 12.5036 15.5803 12.7134 15.8166C12.9232 16.0529 13.2719 16.0621 13.4922 15.837L16.829 12.4279C16.9382 12.3164 17 12.1617 17 12C17 11.8383 16.9382 11.6836 16.829 11.5721L13.4922 8.16301Z"/>
</g>
<defs>
<clipPath id="clip0_161_2373">
<rect width="24" height="24" fill="white"/>
</clipPath>
</defs>
</svg>
