<svg width="46" height="45" viewBox="0 0 46 45" fill="none" xmlns="http://www.w3.org/2000/svg">
<mask id="path-1-inside-1_256_697" fill="white">
<path d="M41.2571 4.49775H37.4813V2.9985C37.4813 2.22111 37.1481 1.44372 36.5928 0.888444C36.0375 0.333166 35.2601 0 34.4828 0C33.7054 0 32.928 0.333166 32.3727 0.888444C31.8174 1.44372 31.4843 2.22111 31.4843 2.9985V4.49775H25.5428V2.9985C25.5428 2.22111 25.2096 1.44372 24.6543 0.888444C24.0991 0.333166 23.3217 0 22.5443 0C21.7669 0 20.9895 0.333166 20.4342 0.888444C19.8789 1.44372 19.5458 2.22111 19.5458 2.9985V4.49775H13.5488V2.9985C13.5488 2.22111 13.2156 1.44372 12.6603 0.888444C12.1051 0.333166 11.3277 0 10.5503 0C9.77289 0 8.9955 0.333166 8.44022 0.888444C7.88494 1.44372 7.55178 2.22111 7.55178 2.9985V4.49775H3.77589C2.77639 4.49775 1.83242 4.88645 1.11056 5.60831C0.388695 6.33017 0 7.27414 0 8.27364V38.2587C0 39.2582 0.388695 40.2021 1.11056 40.924C1.83242 41.6458 2.77639 42.0345 3.77589 42.0345H24.7654C24.9875 42.0345 25.1541 41.979 25.3207 41.8124C25.4873 41.6458 25.5428 41.4793 25.5428 41.2572C25.5428 41.035 25.4873 40.8685 25.3207 40.7019C25.1541 40.5353 24.9875 40.4798 24.7654 40.4798H3.83142C3.22061 40.4798 2.66533 40.2576 2.22111 39.8134C1.77689 39.3692 1.55478 38.8139 1.55478 38.2031V14.9925H43.5338V27.7084C43.5338 27.9305 43.5893 28.0971 43.7559 28.2636C43.9225 28.4302 44.0891 28.4858 44.3112 28.4858C44.5333 28.4858 44.6999 28.4302 44.8665 28.2636C45.033 28.0971 45.0886 27.9305 45.0886 27.7084V8.21811C45.0886 7.21862 44.6999 6.27464 43.978 5.55278C43.2562 4.88645 42.2566 4.49775 41.2571 4.49775ZM33.039 2.9985C33.039 2.60981 33.2056 2.22111 33.4833 1.94347C33.7609 1.66583 34.1496 1.49925 34.5383 1.49925C34.927 1.49925 35.3157 1.66583 35.5933 1.94347C35.871 2.22111 36.0375 2.60981 36.0375 2.9985V7.49625C36.0375 7.88495 35.871 8.27364 35.5933 8.55128C35.3157 8.82892 34.927 8.9955 34.5383 8.9955C34.1496 8.9955 33.7609 8.82892 33.4833 8.55128C33.2056 8.27364 33.039 7.88495 33.039 7.49625V2.9985ZM21.045 2.9985C21.045 2.60981 21.2116 2.22111 21.4893 1.94347C21.7669 1.66583 22.1556 1.49925 22.5443 1.49925C22.933 1.49925 23.3217 1.66583 23.5993 1.94347C23.877 2.22111 24.0435 2.60981 24.0435 2.9985V7.49625C24.0435 7.88495 23.877 8.27364 23.5993 8.55128C23.3217 8.82892 22.933 8.9955 22.5443 8.9955C22.1556 8.9955 21.7669 8.82892 21.4893 8.55128C21.2116 8.27364 21.045 7.88495 21.045 7.49625V2.9985ZM9.05103 2.9985C9.05103 2.60981 9.21761 2.22111 9.49525 1.94347C9.77289 1.66583 10.1616 1.49925 10.5503 1.49925C10.939 1.49925 11.3277 1.66583 11.6053 1.94347C11.8829 2.22111 12.0495 2.60981 12.0495 2.9985V7.49625C12.0495 7.88495 11.8829 8.27364 11.6053 8.55128C11.3277 8.82892 10.939 8.9955 10.5503 8.9955C10.1616 8.9955 9.77289 8.82892 9.49525 8.55128C9.21761 8.27364 9.05103 7.88495 9.05103 7.49625V2.9985ZM43.5338 13.4933H1.55478V8.21811C1.55478 7.60731 1.77689 7.05203 2.22111 6.60781C2.66533 6.16359 3.22061 5.94147 3.83142 5.94147H7.60731V7.44073C7.60731 8.21811 7.94047 8.9955 8.49575 9.55078C9.05103 10.1061 9.82842 10.4392 10.6058 10.4392C11.3832 10.4392 12.1606 10.1061 12.7159 9.55078C13.2711 8.9955 13.6043 8.21811 13.6043 7.44073V5.94147H19.6013V7.44073C19.6013 8.21811 19.9345 8.9955 20.4898 9.55078C21.045 10.1061 21.8224 10.4392 22.5998 10.4392C23.3772 10.4392 24.1546 10.1061 24.7099 9.55078C25.2651 8.9955 25.5983 8.21811 25.5983 7.44073V5.94147H31.5953V7.44073C31.5953 8.21811 31.9285 8.9955 32.4838 9.55078C33.039 10.1061 33.8164 10.4392 34.5938 10.4392C35.3712 10.4392 36.1486 10.1061 36.7039 9.55078C37.2591 8.9955 37.5923 8.21811 37.5923 7.44073V5.94147H41.3682C41.979 5.94147 42.5343 6.16359 42.9785 6.60781C43.4227 7.05203 43.6448 7.60731 43.6448 8.21811V13.4933H43.5338Z"/>
</mask>
<path d="M41.2571 4.49775H37.4813V2.9985C37.4813 2.22111 37.1481 1.44372 36.5928 0.888444C36.0375 0.333166 35.2601 0 34.4828 0C33.7054 0 32.928 0.333166 32.3727 0.888444C31.8174 1.44372 31.4843 2.22111 31.4843 2.9985V4.49775H25.5428V2.9985C25.5428 2.22111 25.2096 1.44372 24.6543 0.888444C24.0991 0.333166 23.3217 0 22.5443 0C21.7669 0 20.9895 0.333166 20.4342 0.888444C19.8789 1.44372 19.5458 2.22111 19.5458 2.9985V4.49775H13.5488V2.9985C13.5488 2.22111 13.2156 1.44372 12.6603 0.888444C12.1051 0.333166 11.3277 0 10.5503 0C9.77289 0 8.9955 0.333166 8.44022 0.888444C7.88494 1.44372 7.55178 2.22111 7.55178 2.9985V4.49775H3.77589C2.77639 4.49775 1.83242 4.88645 1.11056 5.60831C0.388695 6.33017 0 7.27414 0 8.27364V38.2587C0 39.2582 0.388695 40.2021 1.11056 40.924C1.83242 41.6458 2.77639 42.0345 3.77589 42.0345H24.7654C24.9875 42.0345 25.1541 41.979 25.3207 41.8124C25.4873 41.6458 25.5428 41.4793 25.5428 41.2572C25.5428 41.035 25.4873 40.8685 25.3207 40.7019C25.1541 40.5353 24.9875 40.4798 24.7654 40.4798H3.83142C3.22061 40.4798 2.66533 40.2576 2.22111 39.8134C1.77689 39.3692 1.55478 38.8139 1.55478 38.2031V14.9925H43.5338V27.7084C43.5338 27.9305 43.5893 28.0971 43.7559 28.2636C43.9225 28.4302 44.0891 28.4858 44.3112 28.4858C44.5333 28.4858 44.6999 28.4302 44.8665 28.2636C45.033 28.0971 45.0886 27.9305 45.0886 27.7084V8.21811C45.0886 7.21862 44.6999 6.27464 43.978 5.55278C43.2562 4.88645 42.2566 4.49775 41.2571 4.49775ZM33.039 2.9985C33.039 2.60981 33.2056 2.22111 33.4833 1.94347C33.7609 1.66583 34.1496 1.49925 34.5383 1.49925C34.927 1.49925 35.3157 1.66583 35.5933 1.94347C35.871 2.22111 36.0375 2.60981 36.0375 2.9985V7.49625C36.0375 7.88495 35.871 8.27364 35.5933 8.55128C35.3157 8.82892 34.927 8.9955 34.5383 8.9955C34.1496 8.9955 33.7609 8.82892 33.4833 8.55128C33.2056 8.27364 33.039 7.88495 33.039 7.49625V2.9985ZM21.045 2.9985C21.045 2.60981 21.2116 2.22111 21.4893 1.94347C21.7669 1.66583 22.1556 1.49925 22.5443 1.49925C22.933 1.49925 23.3217 1.66583 23.5993 1.94347C23.877 2.22111 24.0435 2.60981 24.0435 2.9985V7.49625C24.0435 7.88495 23.877 8.27364 23.5993 8.55128C23.3217 8.82892 22.933 8.9955 22.5443 8.9955C22.1556 8.9955 21.7669 8.82892 21.4893 8.55128C21.2116 8.27364 21.045 7.88495 21.045 7.49625V2.9985ZM9.05103 2.9985C9.05103 2.60981 9.21761 2.22111 9.49525 1.94347C9.77289 1.66583 10.1616 1.49925 10.5503 1.49925C10.939 1.49925 11.3277 1.66583 11.6053 1.94347C11.8829 2.22111 12.0495 2.60981 12.0495 2.9985V7.49625C12.0495 7.88495 11.8829 8.27364 11.6053 8.55128C11.3277 8.82892 10.939 8.9955 10.5503 8.9955C10.1616 8.9955 9.77289 8.82892 9.49525 8.55128C9.21761 8.27364 9.05103 7.88495 9.05103 7.49625V2.9985ZM43.5338 13.4933H1.55478V8.21811C1.55478 7.60731 1.77689 7.05203 2.22111 6.60781C2.66533 6.16359 3.22061 5.94147 3.83142 5.94147H7.60731V7.44073C7.60731 8.21811 7.94047 8.9955 8.49575 9.55078C9.05103 10.1061 9.82842 10.4392 10.6058 10.4392C11.3832 10.4392 12.1606 10.1061 12.7159 9.55078C13.2711 8.9955 13.6043 8.21811 13.6043 7.44073V5.94147H19.6013V7.44073C19.6013 8.21811 19.9345 8.9955 20.4898 9.55078C21.045 10.1061 21.8224 10.4392 22.5998 10.4392C23.3772 10.4392 24.1546 10.1061 24.7099 9.55078C25.2651 8.9955 25.5983 8.21811 25.5983 7.44073V5.94147H31.5953V7.44073C31.5953 8.21811 31.9285 8.9955 32.4838 9.55078C33.039 10.1061 33.8164 10.4392 34.5938 10.4392C35.3712 10.4392 36.1486 10.1061 36.7039 9.55078C37.2591 8.9955 37.5923 8.21811 37.5923 7.44073V5.94147H41.3682C41.979 5.94147 42.5343 6.16359 42.9785 6.60781C43.4227 7.05203 43.6448 7.60731 43.6448 8.21811V13.4933H43.5338Z" fill="#FF2A23" stroke="#FF2A23" stroke-width="4" mask="url(#path-1-inside-1_256_697)"/>
<mask id="path-2-inside-2_256_697" fill="white">
<path d="M21.0449 20.2121C21.0449 19.8234 20.8783 19.4348 20.6006 19.1571C20.323 18.8795 19.9343 18.7129 19.5456 18.7129H16.5471C16.1584 18.7129 15.7697 18.8795 15.4921 19.1571C15.2144 19.4348 15.0479 19.8234 15.0479 20.2121V22.4888C15.0479 22.8775 15.2144 23.2662 15.4921 23.5438C15.7697 23.8214 16.1584 23.988 16.5471 23.988H19.5456C19.9343 23.988 20.323 23.8214 20.6006 23.5438C20.8783 23.2662 21.0449 22.8775 21.0449 22.4888V20.2121ZM16.5471 22.4888V20.2121H19.5456V22.4888H16.5471Z"/>
</mask>
<path d="M21.0449 20.2121C21.0449 19.8234 20.8783 19.4348 20.6006 19.1571C20.323 18.8795 19.9343 18.7129 19.5456 18.7129H16.5471C16.1584 18.7129 15.7697 18.8795 15.4921 19.1571C15.2144 19.4348 15.0479 19.8234 15.0479 20.2121V22.4888C15.0479 22.8775 15.2144 23.2662 15.4921 23.5438C15.7697 23.8214 16.1584 23.988 16.5471 23.988H19.5456C19.9343 23.988 20.323 23.8214 20.6006 23.5438C20.8783 23.2662 21.0449 22.8775 21.0449 22.4888V20.2121ZM16.5471 22.4888V20.2121H19.5456V22.4888H16.5471Z" fill="#FF2A23"/>
<path d="M16.5471 22.4888H14.5471V24.4888H16.5471V22.4888ZM16.5471 20.2121V18.2121H14.5471V20.2121H16.5471ZM19.5456 20.2121H21.5456V18.2121H19.5456V20.2121ZM19.5456 22.4888V24.4888H21.5456V22.4888H19.5456ZM23.0449 20.2121C23.0449 19.2714 22.652 18.3801 22.0148 17.7429L19.1864 20.5713C19.1386 20.5235 19.1064 20.4731 19.0849 20.4223C19.0634 20.3714 19.0449 20.3016 19.0449 20.2121H23.0449ZM22.0148 17.7429C21.3777 17.1057 20.4863 16.7129 19.5456 16.7129V20.7129C19.4561 20.7129 19.3863 20.6943 19.3355 20.6728C19.2847 20.6513 19.2342 20.6192 19.1864 20.5713L22.0148 17.7429ZM19.5456 16.7129H16.5471V20.7129H19.5456V16.7129ZM16.5471 16.7129C15.6064 16.7129 14.715 17.1057 14.0779 17.7429L16.9063 20.5713C16.8585 20.6192 16.808 20.6513 16.7572 20.6728C16.7064 20.6943 16.6366 20.7129 16.5471 20.7129V16.7129ZM14.0779 17.7429C13.4407 18.3801 13.0479 19.2714 13.0479 20.2121H17.0479C17.0479 20.3016 17.0293 20.3714 17.0078 20.4223C16.9863 20.4731 16.9541 20.5235 16.9063 20.5713L14.0779 17.7429ZM13.0479 20.2121V22.4888H17.0479V20.2121H13.0479ZM13.0479 22.4888C13.0479 23.4295 13.4407 24.3208 14.0779 24.958L16.9063 22.1296C16.9541 22.1774 16.9863 22.2279 17.0078 22.2787C17.0293 22.3295 17.0479 22.3993 17.0479 22.4888H13.0479ZM14.0779 24.958C14.715 25.5952 15.6064 25.988 16.5471 25.988V21.988C16.6366 21.988 16.7064 22.0066 16.7572 22.0281C16.808 22.0496 16.8585 22.0818 16.9063 22.1296L14.0779 24.958ZM16.5471 25.988H19.5456V21.988H16.5471V25.988ZM19.5456 25.988C20.4863 25.988 21.3777 25.5952 22.0148 24.958L19.1864 22.1296C19.2342 22.0818 19.2847 22.0496 19.3355 22.0281C19.3863 22.0066 19.4561 21.988 19.5456 21.988V25.988ZM22.0148 24.958C22.652 24.3208 23.0449 23.4295 23.0449 22.4888H19.0449C19.0449 22.3993 19.0634 22.3295 19.0849 22.2787C19.1064 22.2279 19.1386 22.1774 19.1864 22.1296L22.0148 24.958ZM23.0449 22.4888V20.2121H19.0449V22.4888H23.0449ZM18.5471 22.4888V20.2121H14.5471V22.4888H18.5471ZM16.5471 22.2121H19.5456V18.2121H16.5471V22.2121ZM17.5456 20.2121V22.4888H21.5456V20.2121H17.5456ZM19.5456 20.4888H16.5471V24.4888H19.5456V20.4888Z" fill="#FF2A23" mask="url(#path-2-inside-2_256_697)"/>
<mask id="path-4-inside-3_256_697" fill="white">
<path d="M12.0478 20.2121C12.0478 19.8234 11.8812 19.4348 11.6036 19.1571C11.3259 18.8795 10.9372 18.7129 10.5485 18.7129H7.55003C7.16134 18.7129 6.77264 18.8795 6.495 19.1571C6.21736 19.4348 6.05078 19.8234 6.05078 20.2121V22.4888C6.05078 22.8775 6.21736 23.2662 6.495 23.5438C6.77264 23.8214 7.16134 23.988 7.55003 23.988H10.5485C10.9372 23.988 11.3259 23.8214 11.6036 23.5438C11.8812 23.2662 12.0478 22.8775 12.0478 22.4888V20.2121ZM7.55003 22.4888V20.2121H10.5485V22.4888H7.55003Z"/>
</mask>
<path d="M12.0478 20.2121C12.0478 19.8234 11.8812 19.4348 11.6036 19.1571C11.3259 18.8795 10.9372 18.7129 10.5485 18.7129H7.55003C7.16134 18.7129 6.77264 18.8795 6.495 19.1571C6.21736 19.4348 6.05078 19.8234 6.05078 20.2121V22.4888C6.05078 22.8775 6.21736 23.2662 6.495 23.5438C6.77264 23.8214 7.16134 23.988 7.55003 23.988H10.5485C10.9372 23.988 11.3259 23.8214 11.6036 23.5438C11.8812 23.2662 12.0478 22.8775 12.0478 22.4888V20.2121ZM7.55003 22.4888V20.2121H10.5485V22.4888H7.55003Z" fill="#FF2A23"/>
<path d="M7.55003 22.4888H5.55003V24.4888H7.55003V22.4888ZM7.55003 20.2121V18.2121H5.55003V20.2121H7.55003ZM10.5485 20.2121H12.5485V18.2121H10.5485V20.2121ZM10.5485 22.4888V24.4888H12.5485V22.4888H10.5485ZM14.0478 20.2121C14.0478 19.2715 13.655 18.3801 13.0178 17.7429L10.1893 20.5713C10.1415 20.5235 10.1093 20.473 10.0879 20.4223C10.0663 20.3714 10.0478 20.3016 10.0478 20.2121H14.0478ZM13.0178 17.7429C12.3806 17.1057 11.4892 16.7129 10.5485 16.7129V20.7129C10.4591 20.7129 10.3892 20.6943 10.3384 20.6728C10.2876 20.6513 10.2372 20.6192 10.1893 20.5713L13.0178 17.7429ZM10.5485 16.7129H7.55003V20.7129H10.5485V16.7129ZM7.55003 16.7129C6.60933 16.7129 5.71797 17.1057 5.08079 17.7429L7.90922 20.5713C7.86139 20.6192 7.81094 20.6513 7.76015 20.6728C7.70932 20.6943 7.6395 20.7129 7.55003 20.7129V16.7129ZM5.08079 17.7429C4.44361 18.3801 4.05078 19.2714 4.05078 20.2121H8.05078C8.05078 20.3016 8.03222 20.3714 8.01071 20.4223C7.98922 20.4731 7.95704 20.5235 7.90922 20.5713L5.08079 17.7429ZM4.05078 20.2121V22.4888H8.05078V20.2121H4.05078ZM4.05078 22.4888C4.05078 23.4295 4.44361 24.3208 5.08079 24.958L7.90922 22.1296C7.95704 22.1774 7.98922 22.2279 8.01071 22.2787C8.03222 22.3295 8.05078 22.3993 8.05078 22.4888H4.05078ZM5.08079 24.958C5.71798 25.5952 6.60934 25.988 7.55003 25.988V21.988C7.63949 21.988 7.70931 22.0066 7.76015 22.0281C7.81094 22.0496 7.86139 22.0818 7.90922 22.1296L5.08079 24.958ZM7.55003 25.988H10.5485V21.988H7.55003V25.988ZM10.5485 25.988C11.4892 25.988 12.3806 25.5952 13.0178 24.958L10.1893 22.1296C10.2372 22.0818 10.2876 22.0496 10.3384 22.0281C10.3893 22.0066 10.4591 21.988 10.5485 21.988V25.988ZM13.0178 24.958C13.655 24.3208 14.0478 23.4295 14.0478 22.4888H10.0478C10.0478 22.3993 10.0663 22.3295 10.0879 22.2787C10.1093 22.2279 10.1415 22.1774 10.1893 22.1296L13.0178 24.958ZM14.0478 22.4888V20.2121H10.0478V22.4888H14.0478ZM9.55003 22.4888V20.2121H5.55003V22.4888H9.55003ZM7.55003 22.2121H10.5485V18.2121H7.55003V22.2121ZM8.54853 20.2121V22.4888H12.5485V20.2121H8.54853ZM10.5485 20.4888H7.55003V24.4888H10.5485V20.4888Z" fill="#FF2A23" mask="url(#path-4-inside-3_256_697)"/>
<mask id="path-6-inside-4_256_697" fill="white">
<path d="M37.5358 23.988C37.9245 23.988 38.3132 23.8214 38.5909 23.5438C38.8685 23.2662 39.0351 22.8775 39.0351 22.4888V20.2121C39.0351 19.8234 38.8685 19.4348 38.5909 19.1571C38.3132 18.8795 37.9245 18.7129 37.5358 18.7129H34.5373C34.1486 18.7129 33.7599 18.8795 33.4823 19.1571C33.2047 19.4348 33.0381 19.8234 33.0381 20.2121V22.4888C33.0381 22.8775 33.2047 23.2662 33.4823 23.5438C33.7599 23.8214 34.1486 23.988 34.5373 23.988H37.5358ZM34.5373 20.2121H37.5358V22.4888H34.5373V20.2121Z"/>
</mask>
<path d="M37.5358 23.988C37.9245 23.988 38.3132 23.8214 38.5909 23.5438C38.8685 23.2662 39.0351 22.8775 39.0351 22.4888V20.2121C39.0351 19.8234 38.8685 19.4348 38.5909 19.1571C38.3132 18.8795 37.9245 18.7129 37.5358 18.7129H34.5373C34.1486 18.7129 33.7599 18.8795 33.4823 19.1571C33.2047 19.4348 33.0381 19.8234 33.0381 20.2121V22.4888C33.0381 22.8775 33.2047 23.2662 33.4823 23.5438C33.7599 23.8214 34.1486 23.988 34.5373 23.988H37.5358ZM34.5373 20.2121H37.5358V22.4888H34.5373V20.2121Z" fill="#FF2A23"/>
<path d="M34.5373 20.2121V18.2121H32.5373V20.2121H34.5373ZM37.5358 20.2121H39.5358V18.2121H37.5358V20.2121ZM37.5358 22.4888V24.4888H39.5358V22.4888H37.5358ZM34.5373 22.4888H32.5373V24.4888H34.5373V22.4888ZM37.5358 25.988C38.4765 25.988 39.3679 25.5952 40.0051 24.958L37.1767 22.1296C37.2245 22.0818 37.2749 22.0496 37.3257 22.0281C37.3766 22.0066 37.4464 21.988 37.5358 21.988V25.988ZM40.0051 24.958C40.6423 24.3208 41.0351 23.4295 41.0351 22.4888H37.0351C37.0351 22.3993 37.0536 22.3295 37.0752 22.2787C37.0966 22.2279 37.1288 22.1774 37.1767 22.1296L40.0051 24.958ZM41.0351 22.4888V20.2121H37.0351V22.4888H41.0351ZM41.0351 20.2121C41.0351 19.2715 40.6423 18.3801 40.0051 17.7429L37.1767 20.5713C37.1288 20.5235 37.0966 20.473 37.0752 20.4223C37.0536 20.3714 37.0351 20.3016 37.0351 20.2121H41.0351ZM40.0051 17.7429C39.3679 17.1057 38.4765 16.7129 37.5358 16.7129V20.7129C37.4464 20.7129 37.3765 20.6943 37.3257 20.6728C37.2749 20.6513 37.2245 20.6192 37.1767 20.5713L40.0051 17.7429ZM37.5358 16.7129H34.5373V20.7129H37.5358V16.7129ZM34.5373 16.7129C33.5966 16.7129 32.7053 17.1057 32.0681 17.7429L34.8965 20.5713C34.8487 20.6192 34.7982 20.6513 34.7475 20.6728C34.6966 20.6943 34.6268 20.7129 34.5373 20.7129V16.7129ZM32.0681 17.7429C31.4309 18.3801 31.0381 19.2715 31.0381 20.2121H35.0381C35.0381 20.3016 35.0195 20.3714 34.998 20.4223C34.9765 20.473 34.9443 20.5235 34.8965 20.5713L32.0681 17.7429ZM31.0381 20.2121V22.4888H35.0381V20.2121H31.0381ZM31.0381 22.4888C31.0381 23.4295 31.4309 24.3208 32.0681 24.958L34.8965 22.1296C34.9443 22.1774 34.9765 22.2279 34.998 22.2787C35.0195 22.3295 35.0381 22.3993 35.0381 22.4888H31.0381ZM32.0681 24.958C32.7053 25.5952 33.5966 25.988 34.5373 25.988V21.988C34.6268 21.988 34.6966 22.0066 34.7474 22.0281C34.7982 22.0496 34.8487 22.0818 34.8965 22.1296L32.0681 24.958ZM34.5373 25.988H37.5358V21.988H34.5373V25.988ZM34.5373 22.2121H37.5358V18.2121H34.5373V22.2121ZM35.5358 20.2121V22.4888H39.5358V20.2121H35.5358ZM37.5358 20.4888H34.5373V24.4888H37.5358V20.4888ZM36.5373 22.4888V20.2121H32.5373V22.4888H36.5373Z" fill="#FF2A23" mask="url(#path-6-inside-4_256_697)"/>
<mask id="path-8-inside-5_256_697" fill="white">
<path d="M21.0449 26.9866C21.0449 26.5979 20.8783 26.2092 20.6006 25.9315C20.323 25.6539 19.9343 25.4873 19.5456 25.4873H16.5471C16.1584 25.4873 15.7697 25.6539 15.4921 25.9315C15.2144 26.2092 15.0479 26.5979 15.0479 26.9866V29.2632C15.0479 29.6519 15.2144 30.0406 15.4921 30.3182C15.7697 30.5959 16.1584 30.7624 16.5471 30.7624H19.5456C19.9343 30.7624 20.323 30.5959 20.6006 30.3182C20.8783 30.0406 21.0449 29.6519 21.0449 29.2632V26.9866ZM16.5471 29.2632V26.9866H19.5456V29.2632H16.5471Z"/>
</mask>
<path d="M21.0449 26.9866C21.0449 26.5979 20.8783 26.2092 20.6006 25.9315C20.323 25.6539 19.9343 25.4873 19.5456 25.4873H16.5471C16.1584 25.4873 15.7697 25.6539 15.4921 25.9315C15.2144 26.2092 15.0479 26.5979 15.0479 26.9866V29.2632C15.0479 29.6519 15.2144 30.0406 15.4921 30.3182C15.7697 30.5959 16.1584 30.7624 16.5471 30.7624H19.5456C19.9343 30.7624 20.323 30.5959 20.6006 30.3182C20.8783 30.0406 21.0449 29.6519 21.0449 29.2632V26.9866ZM16.5471 29.2632V26.9866H19.5456V29.2632H16.5471Z" fill="#FF2A23"/>
<path d="M16.5471 29.2632H14.5471V31.2632H16.5471V29.2632ZM16.5471 26.9866V24.9866H14.5471V26.9866H16.5471ZM19.5456 26.9866H21.5456V24.9866H19.5456V26.9866ZM19.5456 29.2632V31.2632H21.5456V29.2632H19.5456ZM23.0449 26.9866C23.0449 26.0459 22.652 25.1545 22.0148 24.5173L19.1864 27.3457C19.1386 27.2979 19.1064 27.2475 19.0849 27.1967C19.0634 27.1458 19.0449 27.076 19.0449 26.9866H23.0449ZM22.0148 24.5173C21.3777 23.8801 20.4863 23.4873 19.5456 23.4873V27.4873C19.4561 27.4873 19.3863 27.4687 19.3355 27.4472C19.2847 27.4257 19.2342 27.3936 19.1864 27.3457L22.0148 24.5173ZM19.5456 23.4873H16.5471V27.4873H19.5456V23.4873ZM16.5471 23.4873C15.6064 23.4873 14.715 23.8801 14.0779 24.5173L16.9063 27.3457C16.8585 27.3936 16.808 27.4257 16.7572 27.4472C16.7064 27.4687 16.6366 27.4873 16.5471 27.4873V23.4873ZM14.0779 24.5173C13.4407 25.1545 13.0479 26.0459 13.0479 26.9866H17.0479C17.0479 27.076 17.0293 27.1458 17.0078 27.1967C16.9863 27.2475 16.9541 27.2979 16.9063 27.3457L14.0779 24.5173ZM13.0479 26.9866V29.2632H17.0479V26.9866H13.0479ZM13.0479 29.2632C13.0479 30.2039 13.4407 31.0953 14.0779 31.7324L16.9063 28.904C16.9541 28.9518 16.9863 29.0023 17.0078 29.0531C17.0293 29.1039 17.0479 29.1737 17.0479 29.2632H13.0479ZM14.0779 31.7324C14.715 32.3696 15.6064 32.7624 16.5471 32.7624V28.7624C16.6366 28.7624 16.7064 28.781 16.7572 28.8025C16.808 28.824 16.8585 28.8562 16.9063 28.904L14.0779 31.7324ZM16.5471 32.7624H19.5456V28.7624H16.5471V32.7624ZM19.5456 32.7624C20.4863 32.7624 21.3777 32.3696 22.0148 31.7324L19.1864 28.904C19.2342 28.8562 19.2847 28.824 19.3355 28.8025C19.3863 28.781 19.4561 28.7624 19.5456 28.7624V32.7624ZM22.0148 31.7324C22.652 31.0953 23.0449 30.2039 23.0449 29.2632H19.0449C19.0449 29.1737 19.0634 29.1039 19.0849 29.0531C19.1064 29.0023 19.1386 28.9518 19.1864 28.904L22.0148 31.7324ZM23.0449 29.2632V26.9866H19.0449V29.2632H23.0449ZM18.5471 29.2632V26.9866H14.5471V29.2632H18.5471ZM16.5471 28.9866H19.5456V24.9866H16.5471V28.9866ZM17.5456 26.9866V29.2632H21.5456V26.9866H17.5456ZM19.5456 27.2632H16.5471V31.2632H19.5456V27.2632Z" fill="#FF2A23" mask="url(#path-8-inside-5_256_697)"/>
<mask id="path-10-inside-6_256_697" fill="white">
<path d="M12.0478 26.9866C12.0478 26.5979 11.8812 26.2092 11.6036 25.9315C11.3259 25.6539 10.9372 25.4873 10.5485 25.4873H7.55003C7.16134 25.4873 6.77264 25.6539 6.495 25.9315C6.21736 26.2092 6.05078 26.5979 6.05078 26.9866V29.2632C6.05078 29.6519 6.21736 30.0406 6.495 30.3182C6.77264 30.5959 7.16134 30.7624 7.55003 30.7624H10.5485C10.9372 30.7624 11.3259 30.5959 11.6036 30.3182C11.8812 30.0406 12.0478 29.6519 12.0478 29.2632V26.9866ZM7.55003 29.2632V26.9866H10.5485V29.2632H7.55003Z"/>
</mask>
<path d="M12.0478 26.9866C12.0478 26.5979 11.8812 26.2092 11.6036 25.9315C11.3259 25.6539 10.9372 25.4873 10.5485 25.4873H7.55003C7.16134 25.4873 6.77264 25.6539 6.495 25.9315C6.21736 26.2092 6.05078 26.5979 6.05078 26.9866V29.2632C6.05078 29.6519 6.21736 30.0406 6.495 30.3182C6.77264 30.5959 7.16134 30.7624 7.55003 30.7624H10.5485C10.9372 30.7624 11.3259 30.5959 11.6036 30.3182C11.8812 30.0406 12.0478 29.6519 12.0478 29.2632V26.9866ZM7.55003 29.2632V26.9866H10.5485V29.2632H7.55003Z" fill="#FF2A23"/>
<path d="M7.55003 29.2632H5.55003V31.2632H7.55003V29.2632ZM7.55003 26.9866V24.9866H5.55003V26.9866H7.55003ZM10.5485 26.9866H12.5485V24.9866H10.5485V26.9866ZM10.5485 29.2632V31.2632H12.5485V29.2632H10.5485ZM14.0478 26.9866C14.0478 26.0459 13.655 25.1545 13.0178 24.5173L10.1893 27.3457C10.1415 27.2979 10.1093 27.2475 10.0879 27.1967C10.0663 27.1458 10.0478 27.076 10.0478 26.9866H14.0478ZM13.0178 24.5173C12.3806 23.8801 11.4892 23.4873 10.5485 23.4873V27.4873C10.4591 27.4873 10.3893 27.4687 10.3384 27.4472C10.2876 27.4257 10.2372 27.3936 10.1893 27.3457L13.0178 24.5173ZM10.5485 23.4873H7.55003V27.4873H10.5485V23.4873ZM7.55003 23.4873C6.60934 23.4873 5.71798 23.8801 5.08079 24.5173L7.90922 27.3457C7.86139 27.3936 7.81094 27.4257 7.76015 27.4472C7.70931 27.4687 7.63949 27.4873 7.55003 27.4873V23.4873ZM5.08079 24.5173C4.44361 25.1545 4.05078 26.0459 4.05078 26.9866H8.05078C8.05078 27.076 8.03222 27.1458 8.01071 27.1967C7.98922 27.2475 7.95704 27.2979 7.90922 27.3457L5.08079 24.5173ZM4.05078 26.9866V29.2632H8.05078V26.9866H4.05078ZM4.05078 29.2632C4.05078 30.2039 4.44361 31.0953 5.08079 31.7324L7.90922 28.904C7.95704 28.9518 7.98922 29.0023 8.01071 29.0531C8.03222 29.1039 8.05078 29.1737 8.05078 29.2632H4.05078ZM5.08079 31.7324C5.71797 32.3696 6.60933 32.7624 7.55003 32.7624V28.7624C7.6395 28.7624 7.70932 28.781 7.76015 28.8025C7.81094 28.824 7.86139 28.8562 7.90922 28.904L5.08079 31.7324ZM7.55003 32.7624H10.5485V28.7624H7.55003V32.7624ZM10.5485 32.7624C11.4892 32.7624 12.3806 32.3696 13.0178 31.7324L10.1893 28.904C10.2372 28.8562 10.2876 28.824 10.3384 28.8025C10.3892 28.781 10.4591 28.7624 10.5485 28.7624V32.7624ZM13.0178 31.7324C13.655 31.0952 14.0478 30.2039 14.0478 29.2632H10.0478C10.0478 29.1737 10.0663 29.1039 10.0879 29.0531C10.1093 29.0023 10.1415 28.9518 10.1893 28.904L13.0178 31.7324ZM14.0478 29.2632V26.9866H10.0478V29.2632H14.0478ZM9.55003 29.2632V26.9866H5.55003V29.2632H9.55003ZM7.55003 28.9866H10.5485V24.9866H7.55003V28.9866ZM8.54853 26.9866V29.2632H12.5485V26.9866H8.54853ZM10.5485 27.2632H7.55003V31.2632H10.5485V27.2632Z" fill="#FF2A23" mask="url(#path-10-inside-6_256_697)"/>
<mask id="path-12-inside-7_256_697" fill="white">
<path d="M19.5456 32.2617H16.5471C16.1584 32.2617 15.7697 32.4283 15.4921 32.7059C15.2144 32.9836 15.0479 33.3723 15.0479 33.761V36.0376C15.0479 36.4263 15.2144 36.815 15.4921 37.0926C15.7697 37.3703 16.1584 37.5369 16.5471 37.5369H19.5456C19.9343 37.5369 20.323 37.3703 20.6006 37.0926C20.8783 36.815 21.0449 36.4263 21.0449 36.0376V33.761C21.0449 33.3723 20.8783 32.9836 20.6006 32.7059C20.323 32.3728 19.9343 32.2617 19.5456 32.2617ZM16.5471 35.9821V33.7054H19.5456V35.9821H16.5471Z"/>
</mask>
<path d="M19.5456 32.2617H16.5471C16.1584 32.2617 15.7697 32.4283 15.4921 32.7059C15.2144 32.9836 15.0479 33.3723 15.0479 33.761V36.0376C15.0479 36.4263 15.2144 36.815 15.4921 37.0926C15.7697 37.3703 16.1584 37.5369 16.5471 37.5369H19.5456C19.9343 37.5369 20.323 37.3703 20.6006 37.0926C20.8783 36.815 21.0449 36.4263 21.0449 36.0376V33.761C21.0449 33.3723 20.8783 32.9836 20.6006 32.7059C20.323 32.3728 19.9343 32.2617 19.5456 32.2617ZM16.5471 35.9821V33.7054H19.5456V35.9821H16.5471Z" fill="#FF2A23"/>
<path d="M20.6006 32.7059L19.0642 33.9863L19.1223 34.056L19.1864 34.1202L20.6006 32.7059ZM16.5471 35.9821H14.5471V37.9821H16.5471V35.9821ZM16.5471 33.7054V31.7054H14.5471V33.7054H16.5471ZM19.5456 33.7054H21.5456V31.7054H19.5456V33.7054ZM19.5456 35.9821V37.9821H21.5456V35.9821H19.5456ZM19.5456 30.2617H16.5471V34.2617H19.5456V30.2617ZM16.5471 30.2617C15.6064 30.2617 14.715 30.6546 14.0779 31.2917L16.9063 34.1202C16.8585 34.168 16.808 34.2002 16.7572 34.2216C16.7064 34.2432 16.6366 34.2617 16.5471 34.2617V30.2617ZM14.0779 31.2917C13.4407 31.9289 13.0479 32.8203 13.0479 33.761H17.0479C17.0479 33.8504 17.0293 33.9203 17.0078 33.9711C16.9863 34.0219 16.9541 34.0723 16.9063 34.1202L14.0779 31.2917ZM13.0479 33.761V36.0376H17.0479V33.761H13.0479ZM13.0479 36.0376C13.0479 36.9783 13.4407 37.8697 14.0779 38.5069L16.9063 35.6784C16.9541 35.7263 16.9863 35.7767 17.0078 35.8275C17.0293 35.8783 17.0479 35.9481 17.0479 36.0376H13.0479ZM14.0779 38.5069C14.715 39.144 15.6064 39.5369 16.5471 39.5369V35.5369C16.6366 35.5369 16.7064 35.5554 16.7572 35.5769C16.808 35.5984 16.8585 35.6306 16.9063 35.6784L14.0779 38.5069ZM16.5471 39.5369H19.5456V35.5369H16.5471V39.5369ZM19.5456 39.5369C20.4863 39.5369 21.3777 39.144 22.0148 38.5069L19.1864 35.6784C19.2342 35.6306 19.2847 35.5984 19.3355 35.5769C19.3863 35.5554 19.4561 35.5369 19.5456 35.5369V39.5369ZM22.0148 38.5069C22.652 37.8697 23.0449 36.9783 23.0449 36.0376H19.0449C19.0449 35.9481 19.0634 35.8783 19.0849 35.8275C19.1064 35.7767 19.1386 35.7263 19.1864 35.6784L22.0148 38.5069ZM23.0449 36.0376V33.761H19.0449V36.0376H23.0449ZM23.0449 33.761C23.0449 32.8203 22.652 31.9289 22.0148 31.2917L19.1864 34.1202C19.1386 34.0723 19.1064 34.0219 19.0849 33.9711C19.0634 33.9203 19.0449 33.8504 19.0449 33.761H23.0449ZM22.1371 31.4256C21.3561 30.4884 20.3036 30.2617 19.5456 30.2617V34.2617C19.5558 34.2617 19.4965 34.2639 19.3968 34.2256C19.2837 34.1821 19.1601 34.1014 19.0642 33.9863L22.1371 31.4256ZM18.5471 35.9821V33.7054H14.5471V35.9821H18.5471ZM16.5471 35.7054H19.5456V31.7054H16.5471V35.7054ZM17.5456 33.7054V35.9821H21.5456V33.7054H17.5456ZM19.5456 33.9821H16.5471V37.9821H19.5456V33.9821Z" fill="#FF2A23" mask="url(#path-12-inside-7_256_697)"/>
<mask id="path-14-inside-8_256_697" fill="white">
<path d="M25.5422 23.988H28.5407C28.9294 23.988 29.3181 23.8214 29.5957 23.5438C29.8734 23.2662 30.04 22.8775 30.04 22.4888V20.2121C30.04 19.8234 29.8734 19.4348 29.5957 19.1571C29.3181 18.8795 28.9294 18.7129 28.5407 18.7129H25.5422C25.1535 18.7129 24.7648 18.8795 24.4872 19.1571C24.2096 19.4348 24.043 19.8234 24.043 20.2121V22.4888C24.043 22.8775 24.2096 23.2662 24.4872 23.5438C24.7648 23.8214 25.1535 23.988 25.5422 23.988ZM25.5422 20.2121H28.5407V22.4888H25.5422V20.2121Z"/>
</mask>
<path d="M25.5422 23.988H28.5407C28.9294 23.988 29.3181 23.8214 29.5957 23.5438C29.8734 23.2662 30.04 22.8775 30.04 22.4888V20.2121C30.04 19.8234 29.8734 19.4348 29.5957 19.1571C29.3181 18.8795 28.9294 18.7129 28.5407 18.7129H25.5422C25.1535 18.7129 24.7648 18.8795 24.4872 19.1571C24.2096 19.4348 24.043 19.8234 24.043 20.2121V22.4888C24.043 22.8775 24.2096 23.2662 24.4872 23.5438C24.7648 23.8214 25.1535 23.988 25.5422 23.988ZM25.5422 20.2121H28.5407V22.4888H25.5422V20.2121Z" fill="#FF2A23"/>
<path d="M25.5422 20.2121V18.2121H23.5422V20.2121H25.5422ZM28.5407 20.2121H30.5407V18.2121H28.5407V20.2121ZM28.5407 22.4888V24.4888H30.5407V22.4888H28.5407ZM25.5422 22.4888H23.5422V24.4888H25.5422V22.4888ZM25.5422 25.988H28.5407V21.988H25.5422V25.988ZM28.5407 25.988C29.4814 25.988 30.3728 25.5952 31.01 24.958L28.1815 22.1296C28.2294 22.0818 28.2798 22.0496 28.3306 22.0281C28.3814 22.0066 28.4513 21.988 28.5407 21.988V25.988ZM31.01 24.958C31.6471 24.3208 32.04 23.4295 32.04 22.4888H28.04C28.04 22.3993 28.0585 22.3295 28.08 22.2787C28.1015 22.2279 28.1337 22.1774 28.1815 22.1296L31.01 24.958ZM32.04 22.4888V20.2121H28.04V22.4888H32.04ZM32.04 20.2121C32.04 19.2714 31.6471 18.3801 31.01 17.7429L28.1815 20.5713C28.1337 20.5235 28.1015 20.4731 28.08 20.4223C28.0585 20.3714 28.04 20.3016 28.04 20.2121H32.04ZM31.01 17.7429C30.3728 17.1057 29.4814 16.7129 28.5407 16.7129V20.7129C28.4513 20.7129 28.3814 20.6943 28.3306 20.6728C28.2798 20.6513 28.2294 20.6192 28.1815 20.5713L31.01 17.7429ZM28.5407 16.7129H25.5422V20.7129H28.5407V16.7129ZM25.5422 16.7129C24.6015 16.7129 23.7102 17.1057 23.073 17.7429L25.9014 20.5713C25.8536 20.6192 25.8031 20.6513 25.7523 20.6728C25.7015 20.6943 25.6317 20.7129 25.5422 20.7129V16.7129ZM23.073 17.7429C22.4358 18.3801 22.043 19.2714 22.043 20.2121H26.043C26.043 20.3016 26.0244 20.3714 26.0029 20.4223C25.9814 20.4731 25.9492 20.5235 25.9014 20.5713L23.073 17.7429ZM22.043 20.2121V22.4888H26.043V20.2121H22.043ZM22.043 22.4888C22.043 23.4295 22.4358 24.3208 23.073 24.958L25.9014 22.1296C25.9492 22.1774 25.9814 22.2279 26.0029 22.2787C26.0244 22.3295 26.043 22.3993 26.043 22.4888H22.043ZM23.073 24.958C23.7102 25.5952 24.6015 25.988 25.5422 25.988V21.988C25.6317 21.988 25.7015 22.0066 25.7523 22.0281C25.8031 22.0496 25.8536 22.0818 25.9014 22.1296L23.073 24.958ZM25.5422 22.2121H28.5407V18.2121H25.5422V22.2121ZM26.5407 20.2121V22.4888H30.5407V20.2121H26.5407ZM28.5407 20.4888H25.5422V24.4888H28.5407V20.4888ZM27.5422 22.4888V20.2121H23.5422V22.4888H27.5422Z" fill="#FF2A23" mask="url(#path-14-inside-8_256_697)"/>
<mask id="path-16-inside-9_256_697" fill="white">
<path d="M24.043 29.2634C24.043 29.6521 24.2096 30.0408 24.4872 30.3184C24.7648 30.5961 25.1535 30.7627 25.5422 30.7627C25.7643 30.7627 25.9309 30.7071 26.0975 30.5406C26.2641 30.374 26.3196 30.2074 26.3196 29.9853C26.3196 29.7632 26.2641 29.5966 26.0975 29.43C25.9309 29.2634 25.7643 29.2079 25.5422 29.2079V26.9312H28.5407C28.7628 26.9312 28.9294 26.8757 29.096 26.7091C29.2626 26.5425 29.3181 26.376 29.3181 26.1539C29.3181 25.9317 29.2626 25.7652 29.096 25.5986C28.9294 25.432 28.7628 25.3765 28.5407 25.3765H25.5422C25.1535 25.3765 24.7648 25.543 24.4872 25.8207C24.2096 26.0983 24.043 26.487 24.043 26.8757V29.2634Z"/>
</mask>
<path d="M24.043 29.2634C24.043 29.6521 24.2096 30.0408 24.4872 30.3184C24.7648 30.5961 25.1535 30.7627 25.5422 30.7627C25.7643 30.7627 25.9309 30.7071 26.0975 30.5406C26.2641 30.374 26.3196 30.2074 26.3196 29.9853C26.3196 29.7632 26.2641 29.5966 26.0975 29.43C25.9309 29.2634 25.7643 29.2079 25.5422 29.2079V26.9312H28.5407C28.7628 26.9312 28.9294 26.8757 29.096 26.7091C29.2626 26.5425 29.3181 26.376 29.3181 26.1539C29.3181 25.9317 29.2626 25.7652 29.096 25.5986C28.9294 25.432 28.7628 25.3765 28.5407 25.3765H25.5422C25.1535 25.3765 24.7648 25.543 24.4872 25.8207C24.2096 26.0983 24.043 26.487 24.043 26.8757V29.2634Z" fill="#FF2A23"/>
<path d="M25.5422 29.2079H23.5422V31.2079H25.5422V29.2079ZM25.5422 26.9312V24.9312H23.5422V26.9312H25.5422ZM22.043 29.2634C22.043 30.2041 22.4358 31.0955 23.073 31.7327L25.9014 28.9042C25.9492 28.9521 25.9814 29.0025 26.0029 29.0533C26.0244 29.1041 26.043 29.1739 26.043 29.2634H22.043ZM23.073 31.7327C23.7102 32.3698 24.6015 32.7627 25.5422 32.7627V28.7627C25.6317 28.7627 25.7015 28.7812 25.7523 28.8027C25.8031 28.8242 25.8536 28.8564 25.9014 28.9042L23.073 31.7327ZM25.5422 32.7627C25.8203 32.7627 26.176 32.728 26.5586 32.5808C26.9502 32.4302 27.2634 32.2031 27.5117 31.9548L24.6833 29.1263C24.765 29.0446 24.9116 28.9286 25.1227 28.8474C25.3249 28.7696 25.4863 28.7627 25.5422 28.7627V32.7627ZM27.5117 31.9548C27.76 31.7065 27.9871 31.3933 28.1377 31.0017C28.2849 30.619 28.3196 30.2633 28.3196 29.9853H24.3196C24.3196 29.9294 24.3266 29.768 24.4043 29.5658C24.4855 29.3547 24.6016 29.2081 24.6833 29.1263L27.5117 31.9548ZM28.3196 29.9853C28.3196 29.7072 28.2849 29.3515 28.1377 28.9688C27.9871 28.5773 27.76 28.2641 27.5117 28.0158L24.6833 30.8442C24.6016 30.7625 24.4855 30.6159 24.4043 30.4048C24.3266 30.2026 24.3196 30.0412 24.3196 29.9853H28.3196ZM27.5117 28.0158C27.2634 27.7675 26.9502 27.5404 26.5586 27.3898C26.176 27.2426 25.8203 27.2079 25.5422 27.2079V31.2079C25.4863 31.2079 25.3249 31.2009 25.1227 31.1232C24.9116 31.042 24.765 30.9259 24.6833 30.8442L27.5117 28.0158ZM27.5422 29.2079V26.9312H23.5422V29.2079H27.5422ZM25.5422 28.9312H28.5407V24.9312H25.5422V28.9312ZM28.5407 28.9312C28.8188 28.9312 29.1745 28.8965 29.5571 28.7493C29.9487 28.5987 30.2619 28.3717 30.5102 28.1233L27.6818 25.2949C27.7635 25.2132 27.9101 25.0972 28.1212 25.016C28.3234 24.9382 28.4848 24.9312 28.5407 24.9312V28.9312ZM30.5102 28.1233C30.7585 27.875 30.9856 27.5618 31.1362 27.1703C31.2834 26.7876 31.3181 26.4319 31.3181 26.1539H27.3181C27.3181 26.0979 27.3251 25.9366 27.4028 25.7344C27.484 25.5233 27.6001 25.3767 27.6818 25.2949L30.5102 28.1233ZM31.3181 26.1539C31.3181 25.8758 31.2834 25.5201 31.1362 25.1375C30.9856 24.7459 30.7585 24.4327 30.5102 24.1844L27.6818 27.0128C27.6001 26.9311 27.484 26.7844 27.4028 26.5733C27.3251 26.3711 27.3181 26.2098 27.3181 26.1539H31.3181ZM30.5102 24.1844C30.2619 23.9361 29.9487 23.709 29.5571 23.5584C29.1745 23.4112 28.8188 23.3765 28.5407 23.3765V27.3765C28.4848 27.3765 28.3234 27.3695 28.1212 27.2917C27.9101 27.2106 27.7635 27.0945 27.6818 27.0128L30.5102 24.1844ZM28.5407 23.3765H25.5422V27.3765H28.5407V23.3765ZM25.5422 23.3765C24.6015 23.3765 23.7102 23.7693 23.073 24.4065L25.9014 27.2349C25.8536 27.2827 25.8031 27.3149 25.7523 27.3364C25.7015 27.3579 25.6317 27.3765 25.5422 27.3765V23.3765ZM23.073 24.4065C22.4358 25.0437 22.043 25.935 22.043 26.8757H26.043C26.043 26.9652 26.0244 27.035 26.0029 27.0858C25.9814 27.1366 25.9492 27.1871 25.9014 27.2349L23.073 24.4065ZM22.043 26.8757V29.2634H26.043V26.8757H22.043Z" fill="#FF2A23" mask="url(#path-16-inside-9_256_697)"/>
<mask id="path-18-inside-10_256_697" fill="white">
<path d="M10.5485 32.2617H7.55003C7.16134 32.2617 6.77264 32.4283 6.495 32.7059C6.21736 32.9836 6.05078 33.3723 6.05078 33.761V36.0376C6.05078 36.4263 6.21736 36.815 6.495 37.0926C6.77264 37.3703 7.16134 37.5369 7.55003 37.5369H10.5485C10.9372 37.5369 11.3259 37.3703 11.6036 37.0926C11.8812 36.815 12.0478 36.4263 12.0478 36.0376V33.761C12.0478 33.3723 11.8812 32.9836 11.6036 32.7059C11.3259 32.3728 10.9372 32.2617 10.5485 32.2617ZM7.55003 35.9821V33.7054H10.5485V35.9821H7.55003Z"/>
</mask>
<path d="M10.5485 32.2617H7.55003C7.16134 32.2617 6.77264 32.4283 6.495 32.7059C6.21736 32.9836 6.05078 33.3723 6.05078 33.761V36.0376C6.05078 36.4263 6.21736 36.815 6.495 37.0926C6.77264 37.3703 7.16134 37.5369 7.55003 37.5369H10.5485C10.9372 37.5369 11.3259 37.3703 11.6036 37.0926C11.8812 36.815 12.0478 36.4263 12.0478 36.0376V33.761C12.0478 33.3723 11.8812 32.9836 11.6036 32.7059C11.3259 32.3728 10.9372 32.2617 10.5485 32.2617ZM7.55003 35.9821V33.7054H10.5485V35.9821H7.55003Z" fill="#FF2A23"/>
<path d="M11.6036 32.7059L10.0671 33.9863L10.1252 34.056L10.1893 34.1202L11.6036 32.7059ZM7.55003 35.9821H5.55003V37.9821H7.55003V35.9821ZM7.55003 33.7054V31.7054H5.55003V33.7054H7.55003ZM10.5485 33.7054H12.5485V31.7054H10.5485V33.7054ZM10.5485 35.9821V37.9821H12.5485V35.9821H10.5485ZM10.5485 30.2617H7.55003V34.2617H10.5485V30.2617ZM7.55003 30.2617C6.60933 30.2617 5.71797 30.6546 5.08079 31.2917L7.90922 34.1202C7.86139 34.168 7.81094 34.2002 7.76015 34.2216C7.70932 34.2432 7.6395 34.2617 7.55003 34.2617V30.2617ZM5.08079 31.2917C4.44361 31.9289 4.05078 32.8203 4.05078 33.761H8.05078C8.05078 33.8504 8.03222 33.9203 8.01071 33.9711C7.98922 34.0219 7.95704 34.0723 7.90922 34.1202L5.08079 31.2917ZM4.05078 33.761V36.0376H8.05078V33.761H4.05078ZM4.05078 36.0376C4.05078 36.9783 4.44361 37.8697 5.08079 38.5069L7.90922 35.6784C7.95704 35.7263 7.98922 35.7767 8.01071 35.8275C8.03222 35.8783 8.05078 35.9482 8.05078 36.0376H4.05078ZM5.08079 38.5069C5.71798 39.144 6.60934 39.5369 7.55003 39.5369V35.5369C7.63949 35.5369 7.70931 35.5554 7.76015 35.5769C7.81094 35.5984 7.86139 35.6306 7.90922 35.6784L5.08079 38.5069ZM7.55003 39.5369H10.5485V35.5369H7.55003V39.5369ZM10.5485 39.5369C11.4892 39.5369 12.3806 39.144 13.0178 38.5069L10.1893 35.6784C10.2372 35.6306 10.2876 35.5984 10.3384 35.5769C10.3893 35.5554 10.4591 35.5369 10.5485 35.5369V39.5369ZM13.0178 38.5069C13.655 37.8697 14.0478 36.9783 14.0478 36.0376H10.0478C10.0478 35.9482 10.0663 35.8783 10.0879 35.8275C10.1093 35.7767 10.1415 35.7263 10.1893 35.6784L13.0178 38.5069ZM14.0478 36.0376V33.761H10.0478V36.0376H14.0478ZM14.0478 33.761C14.0478 32.8203 13.655 31.9289 13.0178 31.2917L10.1893 34.1202C10.1415 34.0723 10.1093 34.0219 10.0879 33.9711C10.0663 33.9202 10.0478 33.8504 10.0478 33.761H14.0478ZM13.14 31.4256C12.359 30.4884 11.3065 30.2617 10.5485 30.2617V34.2617C10.5588 34.2617 10.4994 34.2639 10.3997 34.2256C10.2866 34.1821 10.1631 34.1014 10.0671 33.9863L13.14 31.4256ZM9.55003 35.9821V33.7054H5.55003V35.9821H9.55003ZM7.55003 35.7054H10.5485V31.7054H7.55003V35.7054ZM8.54853 33.7054V35.9821H12.5485V33.7054H8.54853ZM10.5485 33.9821H7.55003V37.9821H10.5485V33.9821Z" fill="#FF2A23" mask="url(#path-18-inside-10_256_697)"/>
<mask id="path-20-inside-11_256_697" fill="white">
<path d="M35.2582 25.4873C33.3148 25.4873 31.4268 26.0426 29.8165 27.1531C28.2062 28.2082 26.9846 29.7629 26.2072 31.5398C25.4298 33.3167 25.2632 35.2602 25.6519 37.1481C26.0406 39.0361 26.9291 40.7574 28.3173 42.1456C29.7055 43.5338 31.4268 44.4223 33.3148 44.811C35.2027 45.1997 37.1462 44.9776 38.9231 44.2557C40.7 43.5338 42.1992 42.2567 43.3098 40.6464C44.3648 39.0361 44.9756 37.1481 44.9756 35.2047C44.9756 32.5949 43.9206 30.1516 42.1437 28.3192C40.3668 26.5423 37.8681 25.4873 35.2582 25.4873ZM35.2582 43.4783C33.6479 43.4783 32.0376 42.9786 30.705 42.0901C29.3723 41.2017 28.3173 39.869 27.6509 38.3698C27.0401 36.8705 26.8736 35.2047 27.2067 33.5944C27.5399 31.9841 28.3173 30.5403 29.4834 29.3743C30.6494 28.2082 32.0932 27.4308 33.7035 27.0976C35.3138 26.7644 36.9796 26.931 38.4789 27.5418C39.9781 28.1526 41.2552 29.2077 42.1992 30.5959C43.0877 31.9285 43.5874 33.5388 43.5874 35.1491C43.5874 37.3147 42.699 39.4248 41.1442 40.9796C39.5894 42.5899 37.4794 43.4783 35.2582 43.4783Z"/>
</mask>
<path d="M35.2582 25.4873C33.3148 25.4873 31.4268 26.0426 29.8165 27.1531C28.2062 28.2082 26.9846 29.7629 26.2072 31.5398C25.4298 33.3167 25.2632 35.2602 25.6519 37.1481C26.0406 39.0361 26.9291 40.7574 28.3173 42.1456C29.7055 43.5338 31.4268 44.4223 33.3148 44.811C35.2027 45.1997 37.1462 44.9776 38.9231 44.2557C40.7 43.5338 42.1992 42.2567 43.3098 40.6464C44.3648 39.0361 44.9756 37.1481 44.9756 35.2047C44.9756 32.5949 43.9206 30.1516 42.1437 28.3192C40.3668 26.5423 37.8681 25.4873 35.2582 25.4873ZM35.2582 43.4783C33.6479 43.4783 32.0376 42.9786 30.705 42.0901C29.3723 41.2017 28.3173 39.869 27.6509 38.3698C27.0401 36.8705 26.8736 35.2047 27.2067 33.5944C27.5399 31.9841 28.3173 30.5403 29.4834 29.3743C30.6494 28.2082 32.0932 27.4308 33.7035 27.0976C35.3138 26.7644 36.9796 26.931 38.4789 27.5418C39.9781 28.1526 41.2552 29.2077 42.1992 30.5959C43.0877 31.9285 43.5874 33.5388 43.5874 35.1491C43.5874 37.3147 42.699 39.4248 41.1442 40.9796C39.5894 42.5899 37.4794 43.4783 35.2582 43.4783Z" fill="#FF2A23"/>
<path d="M29.8165 27.1531L30.9126 28.8261L30.9324 28.813L30.952 28.7996L29.8165 27.1531ZM43.3098 40.6464L44.9562 41.7819L44.9697 41.7623L44.9827 41.7424L43.3098 40.6464ZM42.1437 28.3192L43.5795 26.9269L43.5688 26.9159L43.5579 26.905L42.1437 28.3192ZM27.6509 38.3698L25.7988 39.1243L25.8106 39.1534L25.8233 39.182L27.6509 38.3698ZM42.1992 30.5959L43.8633 29.4865L43.8582 29.4788L43.8531 29.4712L42.1992 30.5959ZM41.1442 40.9796L39.73 39.5653L39.7176 39.5778L39.7054 39.5904L41.1442 40.9796ZM35.2582 23.4873C32.9308 23.4873 30.6426 24.1539 28.6811 25.5067L30.952 28.7996C32.2111 27.9312 33.6988 27.4873 35.2582 27.4873V23.4873ZM28.7205 25.4802C26.7427 26.776 25.2861 28.6554 24.3749 30.7382L28.0395 32.3415C28.6831 30.8705 29.6697 29.6403 30.9126 28.8261L28.7205 25.4802ZM24.3749 30.7382C23.4214 32.9177 23.2263 35.2845 23.693 37.5514L27.6109 36.7448C27.3002 35.2359 27.4383 33.7158 28.0395 32.3415L24.3749 30.7382ZM23.693 37.5514C24.1562 39.8011 25.2234 41.8802 26.9031 43.5599L29.7315 40.7314C28.6347 39.6347 27.9251 38.2711 27.6109 36.7448L23.693 37.5514ZM26.9031 43.5599C28.5827 45.2395 30.6618 46.3067 32.9115 46.7699L33.7181 42.8521C32.1918 42.5378 30.8282 41.8282 29.7315 40.7314L26.9031 43.5599ZM32.9115 46.7699C35.2167 47.2445 37.5619 46.9674 39.6758 46.1086L38.1703 42.4028C36.7305 42.9877 35.1888 43.1548 33.7181 42.8521L32.9115 46.7699ZM39.6758 46.1086C41.8554 45.2232 43.6508 43.6747 44.9562 41.7819L41.6634 39.5109C40.7477 40.8387 39.5446 41.8445 38.1703 42.4028L39.6758 46.1086ZM44.9827 41.7424C46.2338 39.8329 46.9756 37.568 46.9756 35.2047H42.9756C42.9756 36.7283 42.4958 38.2393 41.6369 39.5503L44.9827 41.7424ZM46.9756 35.2047C46.9756 32.0473 45.6984 29.112 43.5795 26.9269L40.7079 29.7115C42.1428 31.1912 42.9756 33.1424 42.9756 35.2047H46.9756ZM43.5579 26.905C41.4059 24.753 38.3985 23.4873 35.2582 23.4873V27.4873C37.3377 27.4873 39.3277 28.3316 40.7295 29.7334L43.5579 26.905ZM35.2582 41.4783C34.0517 41.4783 32.826 41.1005 31.8144 40.426L29.5956 43.7542C31.2492 44.8567 33.2441 45.4783 35.2582 45.4783V41.4783ZM31.8144 40.426C30.8368 39.7743 30.0117 38.757 29.4786 37.5575L25.8233 39.182C26.6229 40.981 27.9078 42.6291 29.5956 43.7542L31.8144 40.426ZM29.5031 37.6152C29.0387 36.4753 28.9142 35.2128 29.1652 33.9996L25.2482 33.1892C24.8329 35.1965 25.0415 37.2657 25.7988 39.1243L29.5031 37.6152ZM29.1652 33.9996C29.4194 32.771 30.0079 31.6782 30.8976 30.7885L28.0691 27.96C26.6267 29.4025 25.6603 31.1971 25.2482 33.1892L29.1652 33.9996ZM30.8976 30.7885C31.7873 29.8988 32.8801 29.3103 34.1087 29.0561L33.2983 25.1391C31.3062 25.5512 29.5116 26.5176 28.0691 27.96L30.8976 30.7885ZM34.1087 29.0561C35.3219 28.8051 36.5844 28.9296 37.7243 29.394L39.2335 25.6896C37.3748 24.9324 35.3056 24.7238 33.2983 25.1391L34.1087 29.0561ZM37.7243 29.394C38.8385 29.848 39.8104 30.6397 40.5454 31.7205L43.8531 29.4712C42.7001 27.7757 41.1177 26.4573 39.2335 25.6896L37.7243 29.394ZM40.5351 31.7053C41.2096 32.7169 41.5874 33.9426 41.5874 35.1491H45.5874C45.5874 33.135 44.9658 31.1401 43.8633 29.4865L40.5351 31.7053ZM41.5874 35.1491C41.5874 36.7712 40.9191 38.3763 39.73 39.5653L42.5584 42.3938C44.4789 40.4733 45.5874 37.8583 45.5874 35.1491H41.5874ZM39.7054 39.5904C38.5291 40.8087 36.939 41.4783 35.2582 41.4783V45.4783C38.0197 45.4783 40.6498 44.371 42.583 42.3687L39.7054 39.5904Z" fill="#FF2A23" mask="url(#path-20-inside-11_256_697)"/>
<path d="M40.2577 32.7614L40.0911 32.5948L40.2577 32.7614ZM40.2577 32.7614V32.7058L40.1142 32.7997C40.1432 32.8073 40.1858 32.8155 40.2391 32.8171C40.2451 32.8173 40.2514 32.8174 40.2577 32.8174V32.7891V32.7614ZM40.4243 32.5392L40.3873 32.5948L40.4243 32.5392Z" fill="#FF2A23" stroke="#FF2A23" stroke-width="2"/>
</svg>
