<svg width="24" height="24" viewBox="0 0 24 24" xmlns="http://www.w3.org/2000/svg">
<path d="M11.0702 1.05511C11.5604 1.00591 12.0534 0.989625 12.5457 1.00637C15.3199 1.16194 17.9342 2.3547 19.8695 4.34785V3.36506C19.8695 3.15654 19.9524 2.95656 20.0999 2.80911C20.2474 2.66166 20.4474 2.57883 20.656 2.57883C20.8646 2.57883 21.0647 2.66166 21.2122 2.80911C21.3596 2.95656 21.4425 3.15654 21.4425 3.36506V6.50998C21.4425 6.71851 21.3596 6.91849 21.2122 7.06594C21.0647 7.21338 20.8646 7.29622 20.656 7.29622H17.51C17.3015 7.29622 17.1014 7.21338 16.9539 7.06594C16.8064 6.91849 16.7236 6.71851 16.7236 6.50998C16.7236 6.30146 16.8064 6.10148 16.9539 5.95404C17.1014 5.80659 17.3015 5.72375 17.51 5.72375H19.0343C17.6679 4.1922 15.8392 3.14777 13.8255 2.74879C11.8119 2.34982 9.72295 2.61807 7.87552 3.51287C5.80633 4.51043 4.174 6.23068 3.28666 8.34893C2.39932 10.4672 2.31835 12.8369 3.05904 15.0107C3.78879 17.193 5.29215 19.0329 7.28553 20.1834C9.27891 21.3338 11.6245 21.7154 13.8799 21.256C16.1353 20.7966 18.1446 19.528 19.5288 17.6895C20.913 15.8511 21.5763 13.5699 21.3937 11.2761C21.3873 11.1729 21.4013 11.0694 21.435 10.9715C21.4686 10.8737 21.5211 10.7834 21.5896 10.7059C21.6581 10.6284 21.7412 10.5651 21.8342 10.5196C21.9272 10.4742 22.0282 10.4475 22.1315 10.4411C22.2348 10.4347 22.3383 10.4487 22.4362 10.4823C22.534 10.5159 22.6243 10.5685 22.7019 10.637C22.7795 10.7054 22.8428 10.7885 22.8882 10.8815C22.9336 10.9744 22.9603 11.0754 22.9667 11.1786C23.175 13.8461 22.4003 16.4977 20.7885 18.6338C19.1767 20.7698 16.8392 22.2429 14.2162 22.7755C8.78313 23.8826 3.35791 20.8037 1.58358 15.5516C-0.190746 10.2996 2.19547 4.50195 7.18655 2.08665C8.40643 1.50638 9.72313 1.15665 11.0702 1.05511Z"/>
</svg>
