<svg width="24" height="24" viewBox="0 0 24 24" xmlns="http://www.w3.org/2000/svg">
<path d="M18.5991 4.50028C18.3651 4.50716 18.1449 4.6035 17.9832 4.77208L12 10.755L6.01676 4.77208C5.84989 4.60178 5.62281 4.50544 5.38369 4.50544C5.02586 4.50544 4.70416 4.72391 4.56998 5.05592C4.43407 5.38792 4.51493 5.76809 4.77126 6.01752L10.7545 12.0005L4.77126 17.9834C4.54073 18.2036 4.44784 18.5322 4.52869 18.8418C4.60955 19.1497 4.85039 19.3906 5.15833 19.4714C5.46798 19.5523 5.79656 19.4594 6.01676 19.2289L12 13.2459L17.9832 19.2289C18.2034 19.4594 18.532 19.5523 18.8417 19.4714C19.1496 19.3906 19.3905 19.1497 19.4713 18.8418C19.5522 18.5322 19.4593 18.2036 19.2287 17.9834L13.2455 12.0005L19.2287 6.01752C19.4902 5.76637 19.5728 5.37932 19.4317 5.04387C19.2924 4.70843 18.9621 4.4934 18.5991 4.50028Z" />
</svg>
