<svg width="24" height="24" viewBox="0 0 24 24" xmlns="http://www.w3.org/2000/svg">
<path fill-rule="evenodd" clip-rule="evenodd" d="M11.9451 4.25H15.0549C16.4225 4.24998 17.5248 4.24996 18.3918 4.36652C19.2919 4.48754 20.0497 4.74643 20.6517 5.34835C21.2536 5.95027 21.5125 6.70814 21.6335 7.60825C21.75 8.47522 21.75 9.57754 21.75 10.9451V16.0549C21.75 17.4225 21.75 18.5248 21.6335 19.3918C21.5125 20.2919 21.2536 21.0497 20.6517 21.6517C20.0497 22.2536 19.2919 22.5125 18.3918 22.6335C17.5248 22.75 16.4225 22.75 15.0549 22.75H11.9451C10.5775 22.75 9.47522 22.75 8.60825 22.6335C7.70814 22.5125 6.95027 22.2536 6.34835 21.6517C5.74643 21.0497 5.48754 20.2919 5.36652 19.3918C5.24996 18.5248 5.24998 17.4225 5.25 16.0549V10.9451C5.24998 9.57754 5.24996 8.47522 5.36652 7.60825C5.48754 6.70814 5.74643 5.95027 6.34835 5.34835C6.95027 4.74643 7.70814 4.48754 8.60825 4.36652C9.47522 4.24996 10.5775 4.24998 11.9451 4.25ZM8.80812 5.85315C8.07435 5.9518 7.68577 6.13225 7.40901 6.40901C7.13225 6.68577 6.9518 7.07435 6.85315 7.80812C6.75159 8.56347 6.75 9.56458 6.75 11V16C6.75 17.4354 6.75159 18.4365 6.85315 19.1919C6.9518 19.9257 7.13225 20.3142 7.40901 20.591C7.68577 20.8678 8.07435 21.0482 8.80812 21.1469C9.56347 21.2484 10.5646 21.25 12 21.25H15C16.4354 21.25 17.4365 21.2484 18.1919 21.1469C18.9257 21.0482 19.3142 20.8678 19.591 20.591C19.8678 20.3142 20.0482 19.9257 20.1469 19.1919C20.2484 18.4365 20.25 17.4354 20.25 16V11C20.25 9.56458 20.2484 8.56347 20.1469 7.80812C20.0482 7.07435 19.8678 6.68577 19.591 6.40901C19.3142 6.13225 18.9257 5.9518 18.1919 5.85315C17.4365 5.75159 16.4354 5.75 15 5.75H12C10.5646 5.75 9.56347 5.75159 8.80812 5.85315Z"/>
<path fill-rule="evenodd" clip-rule="evenodd" d="M10.9436 1.25L15 1.25C17.0711 1.25 18.75 2.92893 18.75 5H17.25C17.25 3.75736 16.2426 2.75 15 2.75H11C9.09318 2.75 7.73851 2.75159 6.71085 2.88976C5.70476 3.02502 5.12511 3.27869 4.7019 3.7019C4.27869 4.12511 4.02502 4.70476 3.88976 5.71085C3.75159 6.73851 3.75 8.09318 3.75 10V16C3.75 17.2426 4.75736 18.25 6 18.25V19.75C3.92893 19.75 2.25 18.0711 2.25 16L2.25 9.94358C2.24998 8.10582 2.24997 6.65019 2.40314 5.51098C2.56076 4.33856 2.89288 3.38961 3.64124 2.64124C4.38961 1.89288 5.33856 1.56076 6.51098 1.40314C7.65019 1.24997 9.10582 1.24998 10.9436 1.25Z" />
</svg>
