<svg width="49" height="49" viewBox="0 0 49 49" fill="none" xmlns="http://www.w3.org/2000/svg">
<g clip-path="url(#clip0_256_597)">
<path d="M7.14583 44.9698H1.02083C0.457333 44.9698 0 44.5125 0 43.949V25.574C0 25.2922 0.116375 25.0227 0.320542 24.8308C0.524708 24.6389 0.812583 24.547 1.08004 24.5552C3.18296 24.6797 10.1798 25.2167 11.9295 26.8745C12.1561 27.0889 12.2725 27.3951 12.2439 27.7055C11.7804 33.0138 8.26467 43.8101 8.11563 44.2654C7.97883 44.6881 7.58683 44.9698 7.14583 44.9698ZM2.04167 42.9281H6.40063C7.16013 40.5292 9.60808 32.5871 10.1512 28.1159C8.86492 27.4911 5.32467 26.9276 2.04167 26.6663V42.9281Z" fill="#FF2A23"/>
<path d="M27.3501 48.99C26.0189 48.99 24.8348 48.6143 23.1198 47.9671L7.84607 42.8772C7.31115 42.6975 7.02328 42.1198 7.2009 41.5848C7.38261 41.0499 7.96244 40.7641 8.49328 40.9397L23.8058 46.0438C27.4869 47.4383 27.7829 47.5445 36.3661 44.0267L46.4866 39.4268C45.3617 38.0589 43.5426 37.43 41.7602 37.8813L33.9386 39.8372C33.3955 39.9678 32.8361 39.6391 32.7013 39.094C32.5666 38.5468 32.8973 37.9935 33.4445 37.8568L41.2661 35.9008C44.3409 35.1352 47.4789 36.5746 48.8958 39.4125C49.0204 39.6616 49.0367 39.9495 48.9448 40.2108C48.8509 40.4721 48.6549 40.6845 48.4038 40.7988L37.1746 45.903C31.8438 48.0855 29.4183 48.99 27.3501 48.99Z" fill="#FF2A23"/>
<path d="M29.4532 40.7333C28.9836 40.7333 28.514 40.6884 28.0547 40.5965L19.1959 38.8264C18.6426 38.7162 18.2853 38.1792 18.3935 37.6259C18.5058 37.0706 19.0509 36.7133 19.594 36.8235L28.4528 38.5937C29.1919 38.7386 29.9636 38.7223 30.6925 38.5406L32.6525 38.0526C32.528 36.1886 31.6174 35.2943 29.3572 34.7329L11.0088 30.6557C10.4575 30.5311 10.1125 29.988 10.233 29.4368C10.3555 28.8876 10.8985 28.5425 11.4518 28.661L29.8268 32.7443C33.2119 33.5875 34.7085 35.3678 34.7085 38.5222V38.8448C34.7085 39.3123 34.39 39.7227 33.9347 39.835L31.1866 40.521C30.6231 40.6619 30.0371 40.7333 29.4532 40.7333Z" fill="#FF2A23"/>
<path d="M27.5625 26.5213C22.4971 26.5213 18.375 22.6809 18.375 17.9626C18.375 13.6261 25.8495 1.78855 26.7009 0.451254C27.0766 -0.136746 28.0484 -0.136746 28.4241 0.451254C29.2755 1.7865 36.75 13.6261 36.75 17.9626C36.75 22.6809 32.6279 26.5213 27.5625 26.5213ZM27.5625 2.9278C24.9839 7.12546 20.4167 15.1451 20.4167 17.9626C20.4167 21.556 23.6221 24.4796 27.5625 24.4796C31.5029 24.4796 34.7083 21.556 34.7083 17.9626C34.7083 15.1431 30.1411 7.12546 27.5625 2.9278Z" fill="#FF2A23"/>
<path d="M27.5622 22.438C24.7467 22.438 22.458 20.1472 22.458 17.3338C22.458 16.7703 22.9153 16.313 23.4788 16.313C24.0423 16.313 24.4997 16.7703 24.4997 17.3338C24.4997 19.0223 25.8737 20.3963 27.5622 20.3963C28.1257 20.3963 28.583 20.8537 28.583 21.4172C28.583 21.9807 28.1257 22.438 27.5622 22.438Z" fill="#FF2A23"/>
</g>
<defs>
<clipPath id="clip0_256_597">
<rect width="49" height="49" fill="white"/>
</clipPath>
</defs>
</svg>
