<svg width="53" height="53" viewBox="0 0 53 53" fill="none" xmlns="http://www.w3.org/2000/svg">
<path d="M13.25 13.25H30.9167" stroke="#FF2A23" stroke-width="1.5" stroke-linecap="round" stroke-linejoin="round"/>
<path d="M13.25 22.0833H39.75" stroke="#FF2A23" stroke-width="1.5" stroke-linecap="round" stroke-linejoin="round"/>
<path d="M28.708 30.9167H39.7497" stroke="#FF2A23" stroke-width="1.5" stroke-linecap="round" stroke-linejoin="round"/>
<path d="M28.708 39.75H39.7497" stroke="#FF2A23" stroke-width="1.5" stroke-linecap="round" stroke-linejoin="round"/>
<path d="M4.41699 47.2584V5.74175C4.41699 5.00997 5.01022 4.41675 5.74199 4.41675H40.3057C40.6571 4.41675 40.9941 4.55634 41.2425 4.80484L48.1957 11.7578C48.4441 12.0063 48.5837 12.3433 48.5837 12.6948V47.2584C48.5837 47.9903 47.9905 48.5834 47.2587 48.5834H5.74199C5.01022 48.5834 4.41699 47.9903 4.41699 47.2584Z" stroke="#FF2A23" stroke-width="1.5" stroke-linecap="round" stroke-linejoin="round"/>
<path d="M13.25 39.7501V30.9167H19.875V39.7501H13.25Z" stroke="#FF2A23" stroke-width="1.5" stroke-linecap="round" stroke-linejoin="round"/>
<path d="M39.75 4.41675V11.9251C39.75 12.6569 40.3432 13.2501 41.075 13.2501H48.5833" stroke="#FF2A23" stroke-width="1.5" stroke-linecap="round" stroke-linejoin="round"/>
</svg>
