<svg width="24" height="24" viewBox="0 0 24 24" xmlns="http://www.w3.org/2000/svg">
<path fill-rule="evenodd" clip-rule="evenodd" d="M18.8105 4.00133C20.051 3.95812 20.9998 4.97641 20.9998 6.16895V15.6424C20.9998 16.8927 19.9868 17.8724 18.7821 17.9477C17.9707 17.9985 17.0522 18.0963 16.3654 18.2775C15.5166 18.5015 14.4721 18.9976 13.6337 19.4446C12.6163 19.9869 11.3835 19.9869 10.3661 19.4446C9.52769 18.9976 8.48324 18.5015 7.63445 18.2775C6.94757 18.0963 6.02909 17.9985 5.21768 17.9477C4.01302 17.8724 3 16.8927 3 15.6424V6.22355C3 5.00185 3.9935 3.97259 5.25824 4.05032C6.09094 4.10149 7.11117 4.20405 7.91475 4.4161C8.86518 4.6669 9.96488 5.19031 10.8051 5.63458C11.5316 6.01874 12.4231 5.99778 13.1393 5.58331C13.8753 5.15732 14.8141 4.66978 15.6451 4.42099C16.6014 4.1347 17.8497 4.0348 18.8105 4.00133ZM19.9012 6.16895C19.9012 5.54893 19.4198 5.07935 18.8488 5.09924C17.9022 5.13221 16.7733 5.23 15.9602 5.47342C15.2572 5.68388 14.4095 6.11748 13.6895 6.53413C13.3329 6.74052 12.9463 6.88006 12.5492 6.95153V18.689C12.7451 18.6428 12.9361 18.5715 13.1169 18.4751C13.9678 18.0216 15.1061 17.4737 16.0851 17.2153C16.8799 17.0056 17.8865 16.903 18.7135 16.8513C19.3829 16.8094 19.9012 16.2698 19.9012 15.6424V6.16895ZM11.4506 18.689C11.2547 18.6428 11.0637 18.5715 10.8829 18.4751C10.0321 18.0216 8.89374 17.4737 7.91475 17.2153C7.11988 17.0056 6.11329 16.903 5.28626 16.8513C4.61689 16.8094 4.09858 16.2698 4.09858 15.6424V6.22355C4.09858 5.58921 4.60304 5.1107 5.19085 5.14683C6.00833 5.19707 6.93971 5.29499 7.63445 5.47832C8.45731 5.69545 9.46502 6.16871 10.2915 6.60575C10.6576 6.7993 11.0504 6.92237 11.4506 6.97619V18.689ZM17.9153 6.09865C17.612 6.09865 17.366 6.34458 17.366 6.64794L17.9153 6.09865ZM17.366 6.64794V9.68746V6.64794ZM5.55158 9.47243C5.62516 9.17813 5.92339 8.99919 6.2177 9.07276L9.59794 9.91783C9.89225 9.9914 10.0712 10.2896 9.99761 10.5839C9.92403 10.8782 9.6258 11.0572 9.3315 10.9836L5.95125 10.1385C5.65694 10.065 5.47801 9.76674 5.55158 9.47243ZM5.55158 12.8527C5.62516 12.5584 5.92339 12.3794 6.2177 12.453L9.59794 13.2981C9.89225 13.3716 10.0712 13.6699 9.99761 13.9642C9.92403 14.2585 9.6258 14.4374 9.3315 14.3638L5.95125 13.5188C5.65694 13.4452 5.47801 13.147 5.55158 12.8527ZM18.4482 12.8527C18.5218 13.147 18.3429 13.4452 18.0486 13.5188L14.6683 14.3638C14.374 14.4374 14.0758 14.2585 14.0022 13.9642C13.9286 13.6699 14.1076 13.3716 14.4019 13.2981L17.7821 12.453C18.0764 12.3794 18.3746 12.5584 18.4482 12.8527Z"/>
<path d="M17.9153 6.09865C18.2187 6.09865 18.4646 6.34458 18.4646 6.64794V10.0369L18.4646 10.0589C18.4648 10.1542 18.4649 10.2815 18.448 10.3896C18.4276 10.52 18.3623 10.7608 18.1133 10.9069C17.8733 11.0479 17.6375 10.9965 17.5198 10.9599C17.4162 10.9277 17.3013 10.873 17.2103 10.8297L17.1905 10.8203L16.2252 10.3618L15.26 10.8203L15.2401 10.8297C15.1491 10.873 15.0343 10.9277 14.9307 10.9599C14.8129 10.9965 14.5771 11.0479 14.3371 10.9069C14.0881 10.7608 14.0228 10.52 14.0024 10.3896C13.9855 10.2815 13.9857 10.1542 13.9858 10.0589L13.9858 10.0369V7.8733C13.9858 7.56993 14.2317 7.32401 14.5351 7.32401C14.8385 7.32401 15.0844 7.56993 15.0844 7.8733V9.68746L15.8481 9.32445C15.894 9.30133 16.0487 9.22332 16.2252 9.22332C16.4017 9.22332 16.5564 9.30133 16.6023 9.32445L17.366 9.68746V6.64794C17.366 6.34458 17.612 6.09865 17.9153 6.09865Z" fill="#061D32"/>
</svg>
