<svg width="67" height="61" viewBox="0 0 67 61" fill="none" xmlns="http://www.w3.org/2000/svg">
<path d="M37.625 51.2083L27.4216 54.6096C26.6607 54.8632 25.875 54.2968 25.875 53.4947V24.6386C25.875 24.1328 26.1986 23.6838 26.6784 23.5239L37.625 19.875M37.625 51.2083L49.375 55.125M37.625 51.2083V19.875M37.625 19.875L49.375 23.7917M49.375 55.125L60.3215 51.4762C60.8013 51.3162 61.125 50.8672 61.125 50.3614V21.5052C61.125 20.7032 60.3393 20.1369 59.5785 20.3905L49.375 23.7917M49.375 55.125V23.7917" stroke="#FF2A23" stroke-width="1.5" stroke-linecap="round" stroke-linejoin="round"/>
<path d="M23.3337 11.6666C23.3337 16.8213 14.0003 25.6666 14.0003 25.6666C14.0003 25.6666 4.66699 16.8213 4.66699 11.6666C4.66699 6.51193 8.84567 2.33325 14.0003 2.33325C19.155 2.33325 23.3337 6.51193 23.3337 11.6666Z" stroke="#FF2A23" stroke-width="1.5"/>
<path d="M13.9997 12.8333C14.644 12.8333 15.1663 12.311 15.1663 11.6667C15.1663 11.0223 14.644 10.5 13.9997 10.5C13.3553 10.5 12.833 11.0223 12.833 11.6667C12.833 12.311 13.3553 12.8333 13.9997 12.8333Z" fill="#FF2A23" stroke="#FF2A23" stroke-width="1.5" stroke-linecap="round" stroke-linejoin="round"/>
</svg>
