<svg width="49" height="49" viewBox="0 0 49 49" fill="none" xmlns="http://www.w3.org/2000/svg">
<path d="M24.4997 4.08325C13.2239 4.08325 4.08301 13.2241 4.08301 24.4999C4.08301 35.7756 13.2239 44.9166 24.4997 44.9166C35.7754 44.9166 44.9163 35.7756 44.9163 24.4999C44.9163 13.2241 35.7754 4.08325 24.4997 4.08325Z" stroke="#FF2A23" stroke-width="2" stroke-linecap="round" stroke-linejoin="round"/>
<path d="M8.71973 37.4557C8.71973 37.4557 13.2706 31.6458 24.4998 31.6458C35.7289 31.6458 40.28 37.4557 40.28 37.4557" stroke="#FF2A23" stroke-width="2" stroke-linecap="round" stroke-linejoin="round"/>
<path d="M24.5 24.5C27.8828 24.5 30.625 21.7578 30.625 18.375C30.625 14.9923 27.8828 12.25 24.5 12.25C21.1172 12.25 18.375 14.9923 18.375 18.375C18.375 21.7578 21.1172 24.5 24.5 24.5Z" stroke="#FF2A23" stroke-width="2" stroke-linecap="round" stroke-linejoin="round"/>
</svg>
