<svg width="20" height="20" viewBox="0 0 20 20" fill="none" xmlns="http://www.w3.org/2000/svg">
<g clip-path="url(#clip0_534_5830)">
<path fill-rule="evenodd" clip-rule="evenodd" d="M10.0003 2.1665C5.6741 2.1665 2.16699 5.67361 2.16699 9.99984C2.16699 14.3261 5.6741 17.8332 10.0003 17.8332C14.3266 17.8332 17.8337 14.3261 17.8337 9.99984C17.8337 5.67361 14.3266 2.1665 10.0003 2.1665ZM1.16699 9.99984C1.16699 5.12132 5.12181 1.1665 10.0003 1.1665C14.8788 1.1665 18.8337 5.12132 18.8337 9.99984C18.8337 14.8784 14.8788 18.8332 10.0003 18.8332C5.12181 18.8332 1.16699 14.8784 1.16699 9.99984Z" fill="#EFF2F5" stroke="#EFF2F5" stroke-width="0.416667"/>
<path fill-rule="evenodd" clip-rule="evenodd" d="M10.0005 6.3335C9.41369 6.3335 8.93799 6.80919 8.93799 7.396C8.93799 7.67214 8.71413 7.896 8.43799 7.896C8.16185 7.896 7.93799 7.67214 7.93799 7.396C7.93799 6.25691 8.8614 5.3335 10.0005 5.3335C11.1396 5.3335 12.063 6.25691 12.063 7.396C12.063 8.1528 11.6551 8.81379 11.0496 9.17205C10.8788 9.27309 10.7308 9.38732 10.6304 9.50559C10.5321 9.62144 10.5005 9.71487 10.5005 9.79183V10.8335C10.5005 11.1096 10.2766 11.3335 10.0005 11.3335C9.72435 11.3335 9.50049 11.1096 9.50049 10.8335V9.79183C9.50049 9.40855 9.66806 9.09411 9.86796 8.85855C10.0658 8.62542 10.315 8.44471 10.5404 8.3114C10.8543 8.12567 11.063 7.78494 11.063 7.396C11.063 6.80919 10.5873 6.3335 10.0005 6.3335Z" fill="#EFF2F5" stroke="#EFF2F5" stroke-width="0.416667" stroke-linecap="round"/>
<path d="M10.6248 13.3333C10.6248 13.6785 10.345 13.9583 9.99984 13.9583C9.65466 13.9583 9.37484 13.6785 9.37484 13.3333C9.37484 12.9882 9.65466 12.7083 9.99984 12.7083C10.345 12.7083 10.6248 12.9882 10.6248 13.3333Z" fill="#EFF2F5" stroke="#EFF2F5" stroke-width="0.416667"/>
</g>
<defs>
<clipPath id="clip0_534_5830">
<rect width="20" height="20" fill="white"/>
</clipPath>
</defs>
</svg>
