<svg width="24" height="24" viewBox="0 0 24 24" fill="none" xmlns="http://www.w3.org/2000/svg">
<path fill-rule="evenodd" clip-rule="evenodd" d="M12.0004 2.5999C6.80891 2.5999 2.60039 6.80843 2.60039 11.9999C2.60039 17.1914 6.80891 21.3999 12.0004 21.3999C17.1919 21.3999 21.4004 17.1914 21.4004 11.9999C21.4004 6.80843 17.1919 2.5999 12.0004 2.5999ZM1.40039 11.9999C1.40039 6.14568 6.14617 1.3999 12.0004 1.3999C17.8546 1.3999 22.6004 6.14568 22.6004 11.9999C22.6004 17.8541 17.8546 22.5999 12.0004 22.5999C6.14617 22.5999 1.40039 17.8541 1.40039 11.9999Z" fill="#061D32" stroke="#061D32" stroke-width="0.5"/>
<path fill-rule="evenodd" clip-rule="evenodd" d="M12.0004 7.5999C11.2962 7.5999 10.7254 8.17074 10.7254 8.8749C10.7254 9.20627 10.4568 9.4749 10.1254 9.4749C9.79402 9.4749 9.52539 9.20627 9.52539 8.8749C9.52539 7.508 10.6335 6.3999 12.0004 6.3999C13.3673 6.3999 14.4754 7.508 14.4754 8.8749C14.4754 9.78306 13.9859 10.5763 13.2593 11.0062C13.0543 11.1274 12.8767 11.2645 12.7563 11.4064C12.6383 11.5454 12.6004 11.6576 12.6004 11.7499V12.9999C12.6004 13.3313 12.3318 13.5999 12.0004 13.5999C11.669 13.5999 11.4004 13.3313 11.4004 12.9999V11.7499C11.4004 11.29 11.6015 10.9126 11.8414 10.63C12.0788 10.3502 12.3778 10.1334 12.6482 9.97339C13.0249 9.75051 13.2754 9.34163 13.2754 8.8749C13.2754 8.17074 12.7046 7.5999 12.0004 7.5999Z" fill="#061D32" stroke="#061D32" stroke-width="0.5" stroke-linecap="round"/>
<path d="M12.75 16C12.75 16.4142 12.4142 16.75 12 16.75C11.5858 16.75 11.25 16.4142 11.25 16C11.25 15.5858 11.5858 15.25 12 15.25C12.4142 15.25 12.75 15.5858 12.75 16Z" fill="#061D32" stroke="#061D32" stroke-width="0.5"/>
</svg>
